<svg width="170" height="40" viewBox="0 0 170 40" fill="none" xmlns="http://www.w3.org/2000/svg">
<rect width="170" height="40" rx="20" fill="#505CFC"/>
<path d="M38.9676 23.68H32.6076L31.3876 27H29.9076L35.0076 13.2H36.5876L41.6676 27H40.1876L38.9676 23.68ZM38.5476 22.52L35.7876 14.96L33.0276 22.52H38.5476ZM43.2745 21.52C43.2745 20.4 43.5011 19.42 43.9545 18.58C44.4078 17.7267 45.0278 17.0733 45.8145 16.62C46.6145 16.1533 47.5145 15.92 48.5145 15.92C49.4745 15.92 50.3411 16.1533 51.1145 16.62C51.8878 17.0867 52.4545 17.6933 52.8145 18.44V12.2H54.2145V27H52.8145V24.56C52.4811 25.32 51.9345 25.9467 51.1745 26.44C50.4145 26.92 49.5211 27.16 48.4945 27.16C47.4945 27.16 46.5945 26.9267 45.7945 26.46C45.0078 25.9933 44.3878 25.3333 43.9345 24.48C43.4945 23.6267 43.2745 22.64 43.2745 21.52ZM52.8145 21.54C52.8145 20.66 52.6345 19.8867 52.2745 19.22C51.9145 18.5533 51.4211 18.04 50.7945 17.68C50.1811 17.32 49.5011 17.14 48.7545 17.14C47.9811 17.14 47.2878 17.3133 46.6745 17.66C46.0611 18.0067 45.5745 18.5133 45.2145 19.18C44.8678 19.8333 44.6945 20.6133 44.6945 21.52C44.6945 22.4133 44.8678 23.2 45.2145 23.88C45.5745 24.5467 46.0611 25.06 46.6745 25.42C47.2878 25.7667 47.9811 25.94 48.7545 25.94C49.5011 25.94 50.1811 25.76 50.7945 25.4C51.4211 25.04 51.9145 24.5267 52.2745 23.86C52.6345 23.1933 52.8145 22.42 52.8145 21.54ZM56.7705 21.52C56.7705 20.4 56.9972 19.42 57.4505 18.58C57.9039 17.7267 58.5239 17.0733 59.3105 16.62C60.1105 16.1533 61.0105 15.92 62.0105 15.92C62.9705 15.92 63.8372 16.1533 64.6105 16.62C65.3839 17.0867 65.9505 17.6933 66.3105 18.44V12.2H67.7105V27H66.3105V24.56C65.9772 25.32 65.4305 25.9467 64.6705 26.44C63.9105 26.92 63.0172 27.16 61.9905 27.16C60.9905 27.16 60.0905 26.9267 59.2905 26.46C58.5039 25.9933 57.8839 25.3333 57.4305 24.48C56.9905 23.6267 56.7705 22.64 56.7705 21.52ZM66.3105 21.54C66.3105 20.66 66.1305 19.8867 65.7705 19.22C65.4105 18.5533 64.9172 18.04 64.2905 17.68C63.6772 17.32 62.9972 17.14 62.2505 17.14C61.4772 17.14 60.7839 17.3133 60.1705 17.66C59.5572 18.0067 59.0705 18.5133 58.7105 19.18C58.3639 19.8333 58.1905 20.6133 58.1905 21.52C58.1905 22.4133 58.3639 23.2 58.7105 23.88C59.0705 24.5467 59.5572 25.06 60.1705 25.42C60.7839 25.7667 61.4772 25.94 62.2505 25.94C62.9972 25.94 63.6772 25.76 64.2905 25.4C64.9172 25.04 65.4105 24.5267 65.7705 23.86C66.1305 23.1933 66.3105 22.42 66.3105 21.54ZM78.2149 17.26V24.04C78.2149 24.7067 78.3416 25.1667 78.5949 25.42C78.8483 25.6733 79.2949 25.8 79.9349 25.8H81.2149V27H79.7149C78.7283 27 77.9949 26.7733 77.5149 26.32C77.0349 25.8533 76.7949 25.0933 76.7949 24.04V17.26H75.2749V16.08H76.7949V13.34H78.2149V16.08H81.2149V17.26H78.2149ZM88.3038 27.16C87.2772 27.16 86.3505 26.9333 85.5238 26.48C84.7105 26.0133 84.0638 25.36 83.5838 24.52C83.1172 23.6667 82.8838 22.6733 82.8838 21.54C82.8838 20.4067 83.1238 19.42 83.6038 18.58C84.0838 17.7267 84.7372 17.0733 85.5638 16.62C86.3905 16.1533 87.3172 15.92 88.3438 15.92C89.3705 15.92 90.2972 16.1533 91.1238 16.62C91.9638 17.0733 92.6172 17.7267 93.0838 18.58C93.5638 19.42 93.8038 20.4067 93.8038 21.54C93.8038 22.66 93.5638 23.6467 93.0838 24.5C92.6038 25.3533 91.9438 26.0133 91.1038 26.48C90.2638 26.9333 89.3305 27.16 88.3038 27.16ZM88.3038 25.94C89.0238 25.94 89.6905 25.78 90.3038 25.46C90.9172 25.1267 91.4105 24.6333 91.7838 23.98C92.1705 23.3133 92.3638 22.5 92.3638 21.54C92.3638 20.58 92.1772 19.7733 91.8038 19.12C91.4305 18.4533 90.9372 17.96 90.3238 17.64C89.7105 17.3067 89.0438 17.14 88.3238 17.14C87.6038 17.14 86.9372 17.3067 86.3238 17.64C85.7105 17.96 85.2172 18.4533 84.8438 19.12C84.4838 19.7733 84.3038 20.58 84.3038 21.54C84.3038 22.5 84.4838 23.3133 84.8438 23.98C85.2172 24.6333 85.7038 25.1267 86.3038 25.46C86.9172 25.78 87.5838 25.94 88.3038 25.94ZM103.224 18.5C103.584 17.74 104.137 17.12 104.884 16.64C105.644 16.16 106.537 15.92 107.564 15.92C108.564 15.92 109.457 16.1533 110.244 16.62C111.031 17.0733 111.644 17.7267 112.084 18.58C112.537 19.42 112.764 20.4 112.764 21.52C112.764 22.64 112.537 23.6267 112.084 24.48C111.644 25.3333 111.024 25.9933 110.224 26.46C109.437 26.9267 108.551 27.16 107.564 27.16C106.524 27.16 105.624 26.9267 104.864 26.46C104.117 25.98 103.571 25.36 103.224 24.6V27H101.844V12.2H103.224V18.5ZM111.344 21.52C111.344 20.6133 111.164 19.8333 110.804 19.18C110.457 18.5133 109.977 18.0067 109.364 17.66C108.751 17.3133 108.057 17.14 107.284 17.14C106.537 17.14 105.851 17.32 105.224 17.68C104.611 18.04 104.124 18.5533 103.764 19.22C103.404 19.8867 103.224 20.66 103.224 21.54C103.224 22.42 103.404 23.1933 103.764 23.86C104.124 24.5267 104.611 25.04 105.224 25.4C105.851 25.76 106.537 25.94 107.284 25.94C108.057 25.94 108.751 25.7667 109.364 25.42C109.977 25.06 110.457 24.5467 110.804 23.88C111.164 23.2 111.344 22.4133 111.344 21.52ZM114.7 21.52C114.7 20.4 114.92 19.42 115.36 18.58C115.814 17.7267 116.434 17.0733 117.22 16.62C118.02 16.1533 118.92 15.92 119.92 15.92C120.96 15.92 121.854 16.16 122.6 16.64C123.36 17.12 123.907 17.7333 124.24 18.48V16.08H125.64V27H124.24V24.58C123.894 25.3267 123.34 25.9467 122.58 26.44C121.834 26.92 120.94 27.16 119.9 27.16C118.914 27.16 118.02 26.9267 117.22 26.46C116.434 25.9933 115.814 25.3333 115.36 24.48C114.92 23.6267 114.7 22.64 114.7 21.52ZM124.24 21.54C124.24 20.66 124.06 19.8867 123.7 19.22C123.34 18.5533 122.847 18.04 122.22 17.68C121.607 17.32 120.927 17.14 120.18 17.14C119.407 17.14 118.714 17.3133 118.1 17.66C117.487 18.0067 117 18.5133 116.64 19.18C116.294 19.8333 116.12 20.6133 116.12 21.52C116.12 22.4133 116.294 23.2 116.64 23.88C117 24.5467 117.487 25.06 118.1 25.42C118.714 25.7667 119.407 25.94 120.18 25.94C120.927 25.94 121.607 25.76 122.22 25.4C122.847 25.04 123.34 24.5267 123.7 23.86C124.06 23.1933 124.24 22.42 124.24 21.54ZM133.416 15.92C134.443 15.92 135.336 16.16 136.096 16.64C136.856 17.12 137.403 17.7267 137.736 18.46V16.08H139.136V27.28C139.136 28.28 138.916 29.1667 138.476 29.94C138.05 30.7133 137.45 31.3067 136.676 31.72C135.903 32.1467 135.023 32.36 134.036 32.36C132.636 32.36 131.47 32.0267 130.536 31.36C129.616 30.6933 129.043 29.7867 128.816 28.64H130.196C130.436 29.4 130.89 30.0067 131.556 30.46C132.236 30.9133 133.063 31.14 134.036 31.14C134.743 31.14 135.376 30.9867 135.936 30.68C136.496 30.3867 136.936 29.9467 137.256 29.36C137.576 28.7733 137.736 28.08 137.736 27.28V24.58C137.39 25.3267 136.836 25.9467 136.076 26.44C135.33 26.92 134.443 27.16 133.416 27.16C132.416 27.16 131.516 26.9267 130.716 26.46C129.93 25.9933 129.31 25.3333 128.856 24.48C128.416 23.6267 128.196 22.64 128.196 21.52C128.196 20.4 128.416 19.42 128.856 18.58C129.31 17.7267 129.93 17.0733 130.716 16.62C131.516 16.1533 132.416 15.92 133.416 15.92ZM137.736 21.54C137.736 20.66 137.556 19.8867 137.196 19.22C136.836 18.5533 136.343 18.04 135.716 17.68C135.103 17.32 134.423 17.14 133.676 17.14C132.903 17.14 132.21 17.3133 131.596 17.66C130.983 18.0067 130.496 18.5133 130.136 19.18C129.79 19.8333 129.616 20.6133 129.616 21.52C129.616 22.4133 129.79 23.2 130.136 23.88C130.496 24.5467 130.983 25.06 131.596 25.42C132.21 25.7667 132.903 25.94 133.676 25.94C134.423 25.94 135.103 25.76 135.716 25.4C136.343 25.04 136.836 24.5267 137.196 23.86C137.556 23.1933 137.736 22.42 137.736 21.54Z" fill="white"/>
</svg>
