<svg width="1440" height="794" viewBox="0 0 1440 794" fill="none" xmlns="http://www.w3.org/2000/svg">
<g clip-path="url(#clip0_29_1323)">
<rect width="1440" height="794" fill="white"/>
<circle cx="350" cy="350" r="350" transform="matrix(-1 0 0 1 440 29)" fill="#FBB8E3" fill-opacity="0.7"/>
<circle cx="100" cy="100" r="100" transform="matrix(-1 0 0 1 1494 656)" fill="#505CFC"/>
<circle cx="50" cy="50" r="50" transform="matrix(-1 0 0 1 1256 679)" fill="#FFEA39"/>
<circle cx="25" cy="25" r="25" transform="matrix(-1 0 0 1 1294 600)" fill="#FBB8E3" fill-opacity="0.7"/>
<circle cx="15" cy="15" r="15" transform="matrix(-1 0 0 1 1183 603)" fill="#505CFC"/>
<circle cx="35" cy="35" r="35" transform="matrix(-1 0 0 1 1115 590)" fill="#FBB8E3" fill-opacity="0.7"/>
<circle cx="250" cy="250" r="250" transform="matrix(-1 0 0 1 440 558)" fill="#FFEA39" fill-opacity="0.7"/>
</g>
<defs>
<clipPath id="clip0_29_1323">
<rect width="1440" height="794" fill="white"/>
</clipPath>
</defs>
</svg>
