<svg width="47" height="50" viewBox="0 0 47 50" fill="none" xmlns="http://www.w3.org/2000/svg">
<path d="M46.9998 18.3801C46.9877 15.2177 45.892 12.1548 43.8946 9.69651C44.573 6.88674 44.361 3.93634 43.2894 1.25047C43.0781 0.733434 42.645 0.338144 42.11 0.172809C41.3523 -0.0857166 38.4855 -0.570429 32.6442 3.19978V3.20053C30.1313 2.53996 27.54 2.22809 24.942 2.27393C22.34 2.22734 19.7443 2.53921 17.2283 3.20053C11.2353 -0.656193 8.11956 -0.0317129 7.4925 0.151629C6.95446 0.323722 6.52208 0.727279 6.31304 1.25031C5.23849 3.92714 5.01889 6.86927 5.68596 9.67539C3.62281 12.1208 2.52343 15.2297 2.59201 18.4229C2.59201 30.3388 9.43924 33.9369 15.7139 35.2084C15.3917 35.993 15.1698 36.8144 15.0544 37.6538C15.043 37.7432 15.043 37.8342 15.0544 37.9236V41.2197C9.34282 41.6939 8.12019 38.3647 8.001 37.9874V37.9882C7.97308 37.9003 7.94063 37.8139 7.9029 37.7289C6.79968 35.488 4.85802 33.7662 2.49389 32.9351C1.50234 32.6052 0.429193 33.138 0.0980844 34.1255C-0.233179 35.1129 0.30183 36.1817 1.29338 36.5122C2.60336 36.9834 3.69614 37.9137 4.36609 39.1296C5.12371 41.575 8.21769 45.4429 15.0325 45.0115V48.1145C15.0325 49.1561 15.8799 50 16.9258 50C17.9709 50 18.8191 49.1561 18.8191 48.1145V38.0632C18.9625 36.9653 19.4424 35.9387 20.1925 35.1218C20.7297 34.6213 20.9244 33.8556 20.692 33.1605C20.4596 32.4661 19.8416 31.9693 19.1111 31.8897C12.5121 31.1246 6.41114 28.9597 6.41114 18.3476H6.41038C6.32209 15.7579 7.32648 13.2494 9.1798 11.4308C9.68237 10.8927 9.84837 10.1239 9.61294 9.42731C8.97529 7.58314 8.9338 5.58636 9.49371 3.71735C11.8163 4.23964 13.9979 5.25792 15.8868 6.70161C16.3788 7.02551 16.9923 7.10893 17.5529 6.92782C19.9571 6.19885 22.4624 5.86068 24.9745 5.92607C27.482 5.86069 29.9844 6.19887 32.3846 6.92782C32.9453 7.11043 33.5596 7.02701 34.0508 6.70161C35.8702 5.31283 37.9528 4.30509 40.1736 3.73852C40.7252 5.62853 40.6762 7.64179 40.0325 9.50253C39.8174 10.1346 39.9578 10.8334 40.4008 11.3339C42.1914 13.2382 43.2057 15.7391 43.2457 18.3477C43.2457 28.9378 36.8308 31.136 30.5457 31.8898C29.7753 31.9755 29.1361 32.5218 28.9354 33.2673C28.7347 34.0128 29.0131 34.8041 29.6372 35.2625C30.308 35.769 31.0868 37.1908 31.0868 39.5715V48.1041C31.0868 49.1457 31.9342 49.9897 32.9793 49.9897C34.0252 49.9897 34.8726 49.1457 34.8726 48.1041V39.5715C34.8923 38.0708 34.6168 36.5813 34.0614 35.1865C39.1459 34.1096 47 30.7805 47 18.38L46.9998 18.3801Z" fill="black"/>
</svg>
