<svg width="37" height="37" viewBox="0 0 37 37" fill="none" xmlns="http://www.w3.org/2000/svg">
<path d="M30.73 5.36C28.01 2.66 24.74 0.96 20.95 0.36C16.54 -0.34 12.41 0.5 8.63 2.89C4.33 5.64 1.62 9.53 0.520005 14.52C0.350005 15.25 0.300005 16.02 0.200005 16.77C0.180005 16.91 0.150005 17.03 0.130005 17.16V19.27C0.220005 19.93 0.280005 20.61 0.400005 21.28C1.51 27.01 4.65001 31.28 9.77001 34.07C11.95 35.26 14.31 35.91 16.8 36.08C16.89 36.1 16.99 36.11 17.07 36.15H19.18C19.86 36.05 20.56 35.98 21.22 35.86C26.63 34.86 30.78 31.98 33.62 27.29C35.46 24.28 36.27 20.96 36.1 17.42C35.86 12.72 34.06 8.69 30.72 5.38L30.73 5.36ZM21.29 33.29V33.7C19.16 34.13 17.09 34.13 15.01 33.7C14.99 33.67 14.98 33.63 14.98 33.61C14.98 31.82 14.98 30.04 15.01 28.23C15.01 27.69 15.25 27.23 15.55 26.78C16.04 26.08 16.5 25.4 17.01 24.67C16.11 24.52 15.26 24.4 14.42 24.23C12.89 23.89 11.49 23.28 10.35 22.14C8.90001 20.69 8.36 18.94 8.5 16.93C8.6 15.5 9.1 14.21 9.98 13.09C10.34 12.65 10.35 12.17 10.22 11.64C9.98001 10.69 9.96 9.73 10.2 8.71C10.54 8.81 10.88 8.88 11.17 9.03C11.87 9.37 12.56 9.74 13.23 10.15C13.71 10.44 14.17 10.52 14.71 10.39C16.02 10.05 17.35 9.85 18.71 9.96C19.56 10.03 20.43 10.16 21.28 10.35C21.96 10.5 22.54 10.44 23.15 10.06C23.88 9.6 24.68 9.24 25.46 8.85C25.63 8.76 25.82 8.76 26.02 8.73C26.26 9.68 26.26 10.6 26.02 11.5C25.83 12.21 26 12.74 26.41 13.32C27.94 15.53 28.2 17.93 27.09 20.38C26.27 22.23 24.73 23.34 22.82 23.92C21.82 24.21 20.76 24.35 19.72 24.57C19.58 24.59 19.43 24.62 19.23 24.66C19.64 25.26 20 25.87 20.44 26.41C21.05 27.18 21.29 28.01 21.27 28.98C21.25 30.41 21.27 31.84 21.27 33.27L21.29 33.29ZM23.42 33.05C23.42 32.93 23.4 32.83 23.4 32.74V29.58C23.42 28.41 23.4 27.25 22.82 26.19C23.43 25.95 24.04 25.75 24.61 25.49C25.99 24.91 27.14 24.04 28.06 22.87C29.05 21.59 29.62 20.18 29.8 18.6C30.04 16.27 29.56 14.13 28.23 12.19C28.16 12.09 28.14 11.9 28.16 11.76C28.35 10.55 28.42 9.34 28.04 8.15C27.63 6.81 26.85 6.38 25.49 6.67C24.38 6.91 23.41 7.44 22.46 8.03C22.1 8.25 21.78 8.3 21.35 8.2C19.12 7.69 16.89 7.69 14.66 8.25C14.42 8.32 14.23 8.27 14.01 8.15C13.11 7.69 12.21 7.23 11.27 6.84C10.9 6.67 10.45 6.64 10.03 6.58C9.26 6.51 8.58 7.02 8.28 7.87C8.01 8.62 7.92 9.4 7.94 10.18C7.96 10.71 8.04 11.23 8.08 11.76C8.1 11.91 8.06 12.08 7.99 12.2C6.29 14.79 5.91 17.54 6.88 20.45C7.63 22.75 9.23 24.35 11.4 25.38C12.05 25.69 12.71 25.91 13.32 26.15C13.18 26.71 13.05 27.27 12.88 27.83C12.86 27.92 12.76 28 12.69 28.03C11.58 28.46 10.58 28.13 9.92 27.16C9.44 26.45 8.95 25.75 8.24 25.25C7.54 24.76 6.79 24.48 5.91 24.57C5.96 25.25 6.03 25.93 6.08 26.63C7.1 26.72 7.59 27.46 8.09 28.21C8.7 29.13 9.48001 29.81 10.56 30.13C11.29 30.35 12.04 30.37 12.81 30.2V32.97C7.84001 31.46 1.96 25.83 2.25 17.56C2.52 9.51 8.83001 3 16.61 2.27C25.22 1.44 32.69 7.7 33.86 15.9C35.02 24.08 29.78 30.89 23.42 33.01V33.05Z" fill="#505CFC" stroke="#505CFC" stroke-width="0.25" stroke-miterlimit="10"/>
</svg>
