<svg width="51" height="50" viewBox="0 0 51 50" fill="none" xmlns="http://www.w3.org/2000/svg">
<g clip-path="url(#clip0_6_43)">
<path d="M14.2223 0C6.56393 0 0.333374 6.23056 0.333374 13.8889V36.1111C0.333374 43.7694 6.56393 50 14.2223 50H36.4445C44.1028 50 50.3334 43.7694 50.3334 36.1111V13.8889C50.3334 6.23056 44.1028 0 36.4445 0H14.2223ZM14.2223 5.55556H36.4445C41.0389 5.55556 44.7778 9.29444 44.7778 13.8889V36.1111C44.7778 40.7056 41.0389 44.4444 36.4445 44.4444H14.2223C9.62782 44.4444 5.88893 40.7056 5.88893 36.1111V13.8889C5.88893 9.29444 9.62782 5.55556 14.2223 5.55556ZM39.2223 8.33333C37.6881 8.33333 36.4445 9.577 36.4445 11.1111C36.4445 12.6452 37.6881 13.8889 39.2223 13.8889C40.7564 13.8889 42 12.6452 42 11.1111C42 9.577 40.7564 8.33333 39.2223 8.33333ZM25.3334 11.1111C17.675 11.1111 11.4445 17.3417 11.4445 25C11.4445 32.6583 17.675 38.8889 25.3334 38.8889C32.9917 38.8889 39.2223 32.6583 39.2223 25C39.2223 17.3417 32.9917 11.1111 25.3334 11.1111ZM25.3334 16.6667C29.9278 16.6667 33.6667 20.4056 33.6667 25C33.6667 29.5944 29.9278 33.3333 25.3334 33.3333C20.7389 33.3333 17 29.5944 17 25C17 20.4056 20.7389 16.6667 25.3334 16.6667Z" fill="black"/>
</g>
<defs>
<clipPath id="clip0_6_43">
<rect width="51" height="50" fill="white"/>
</clipPath>
</defs>
</svg>
