<svg width="37" height="37" viewBox="0 0 37 37" fill="none" xmlns="http://www.w3.org/2000/svg">
<path d="M35.48 5.86C34.21 2.76 31.89 0.889999 28.59 0.269999C28.34 0.219999 28.09 0.179999 27.83 0.139999H8.42C7.57 0.349999 6.68 0.449999 5.88 0.779999C2.76 2.05 0.870002 4.37 0.260002 7.7C0.150002 8.28 0.130005 8.89 0.130005 9.48C0.130005 15.28 0.130005 21.08 0.130005 26.88C0.130005 30.05 1.39 32.6 3.95 34.47C5.5 35.6 7.27 36.13 9.18 36.14C15.14 36.14 21.11 36.16 27.07 36.14C31.06 36.13 34.46 33.65 35.69 29.86C35.9 29.21 35.98 28.52 36.13 27.84V8.43C35.92 7.57 35.81 6.67 35.48 5.86ZM33.12 18.13H33.11C33.11 21.25 33.14 24.36 33.11 27.48C33.07 30.18 30.8 32.67 28.13 33.04C27.74 33.09 27.34 33.12 26.94 33.13C21.07 33.13 15.2 33.13 9.33001 33.13C6.73001 33.13 4.84 31.94 3.69 29.6C3.32 28.86 3.16 28.05 3.16 27.22C3.16 21.09 3.14 14.96 3.18 8.84C3.2 6.08 5.46 3.61 8.18 3.23C8.55 3.18 8.93 3.15 9.3 3.15C15.2 3.15 21.11 3.14 27.02 3.15C29.6 3.15 31.46 4.35 32.6 6.66C33.02 7.5 33.15 8.42 33.14 9.35C33.14 12.28 33.14 15.21 33.14 18.14L33.12 18.13Z" fill="#505CFC"/>
<path d="M18.1 9.13C13.12 9.16 9.08001 13.23 9.13001 18.17C9.17001 23.14 13.22 27.15 18.15 27.13C23.12 27.1 27.17 23.03 27.12 18.09C27.08 13.12 23.03 9.11 18.1 9.13ZM18.11 24.12C14.79 24.12 12.13 21.44 12.13 18.13C12.13 14.8 14.84 12.11 18.15 12.14C21.47 12.17 24.13 14.85 24.11 18.15C24.09 21.47 21.42 24.13 18.11 24.12Z" fill="#505CFC"/>
<path d="M30.13 8.38C30.13 9.62 29.11 10.63 27.86 10.62C26.62 10.62 25.64 9.62 25.64 8.38C25.64 7.13 26.67 6.11 27.9 6.13C29.13 6.15 30.13 7.16 30.13 8.38Z" fill="#505CFC"/>
</svg>
