<svg width="150" height="150" viewBox="0 0 150 150" fill="none" xmlns="http://www.w3.org/2000/svg">
<circle cx="75" cy="75" r="75" fill="#505CFC"/>
<path d="M26 111V110L28 109.3C30.2667 108.567 31.4 106.667 31.4 103.6V52.4C31.4 51.0667 31.2333 50 30.9 49.2C30.6333 48.4 29.8667 47.7333 28.6 47.2L26 46V45H45.3L63.8 93.4L81.2 45H100.9V46L99.3 46.6C98.0333 47.0667 97.1667 47.7333 96.7 48.6C96.2333 49.4 96 50.4667 96 51.8V104.1C96 105.433 96.1667 106.467 96.5 107.2C96.8333 107.933 97.6333 108.567 98.9 109.1L100.9 110V111H76V110L78.1 109.1C79.3667 108.567 80.1667 107.933 80.5 107.2C80.8333 106.467 81 105.433 81 104.1V81.6L81.2 53L60.3 111H55.3L33.5 53.7L33.8 78.6V103.8C33.8 105.267 34 106.467 34.4 107.4C34.8667 108.267 35.7333 108.9 37 109.3L39.2 110V111H26Z" fill="#FFEA39"/>
<path d="M118.102 112.5C115.702 112.5 113.668 111.667 112.002 110C110.335 108.333 109.502 106.333 109.502 104C109.502 101.667 110.335 99.6333 112.002 97.9C113.668 96.1667 115.702 95.3 118.102 95.3C120.502 95.3 122.535 96.1667 124.202 97.9C125.868 99.6333 126.702 101.667 126.702 104C126.702 106.333 125.868 108.333 124.202 110C122.535 111.667 120.502 112.5 118.102 112.5Z" fill="#FBB8E3"/>
</svg>
