<svg width="818" height="1215" viewBox="0 0 818 1215" fill="none" xmlns="http://www.w3.org/2000/svg">
<path fill-rule="evenodd" clip-rule="evenodd" d="M764.153 873.112C764.153 865.02 752.953 850.657 752.934 843.328C762.35 841.645 770.222 828.888 768.136 820.899C764.461 818.09 754.828 812.56 750.844 809.978C726.571 810.714 735.796 776.945 733.049 759.78C730.283 742.986 728.229 725.426 724.181 708.537C716.991 695.023 713.617 679.873 706.745 666.427C703.676 661.971 698.716 657.886 697.231 652.709C682.197 636.289 661.501 626.447 644.469 612.54C651.079 610.424 650.638 601.509 650.211 595.784C651.749 588.315 650.106 578.947 643.294 574.739C640.992 567.239 630.93 564.621 625.046 569.399C621.181 552.076 606.06 541.566 590.22 535.138C590.234 535.087 590.247 535.037 590.262 534.986C574.287 528.646 555.14 525.486 539.2 529.049C547.614 435.301 475.811 431.859 439.37 439.738C420.731 443.768 392.764 456.313 386.41 473.754C382.823 483.601 372.53 515.357 371.065 525.486C343.238 509.607 310.978 488.668 286.842 520.636C282.009 526.207 276.661 530.345 269.429 532.259C246.849 538.118 216.879 538.314 204.045 561.332C196.374 575.592 203.273 584.988 201.212 599.253C99.5692 670.632 14.6282 933.585 33.7002 1055.92C38.2882 1099.7 60.6882 1177.19 115.977 1167.53C144.177 1198.37 617.501 1198.37 666.308 1167.53C706.483 1178.03 747.305 1161.77 764.153 1123.29C785.548 1070.53 762.875 1013.55 758.857 959.421C756.417 945.756 752.785 934.909 750.844 920.919C750.035 915.09 752.825 905.392 750.844 900.018C751.779 896.52 764.153 881.203 764.153 873.112Z" fill="#D08B5B"/>
<path fill-rule="evenodd" clip-rule="evenodd" d="M364.258 519.034L365.927 519.748L371.659 522.233L370.457 524.988C367.075 532.744 363.274 540.205 359.108 547.23L358.323 548.542L357.118 550.535L357.179 550.603C357.698 551.178 358.228 551.775 358.77 552.393L421.849 620.17C448.457 648.736 462.505 663.765 463.992 665.259C470.195 671.49 476.293 672.268 481.873 667.012L482.502 666.417L483.536 665.421L484.242 664.729C487.885 661.13 491.506 657.151 496.711 651.149L554.974 568.501L551.294 560.279C544.539 545.096 540.851 536.218 540.229 533.647L539.949 532.385L539.366 529.672L542.026 528.88C551.619 526.023 562.237 526.772 574.283 530.335L574.98 530.543L576.986 531.164C585.147 533.7 589.768 535.406 594.501 537.933C600.941 541.373 605.696 545.644 608.664 551.211C612.077 557.617 614.689 560.836 619.088 563.439L619.432 563.64L619.86 563.88L620.31 564.123C620.699 564.329 621.131 564.548 621.651 564.803L623.498 565.695C629.328 568.49 632.006 570.279 634.3 573.807C636.834 577.703 637.263 581.349 636.48 586.626L636.411 587.082L636.288 587.828L635.812 590.569L635.698 591.264C635.389 593.226 635.337 594.952 635.559 596.402L635.615 596.732L636.892 603.521L634.358 601.912L641.367 607.625C651.177 615.655 657.023 620.637 663.136 626.256L664.826 627.819L665.158 628.128C676.173 638.402 685.12 648.308 692.608 658.883C700.73 670.348 707.611 682.888 713.169 696.243L713.798 697.773L713.849 697.973C722.173 730.594 728.859 763.639 733.891 797.004L734.373 800.233L736.816 816.792L728.774 802.113C727.522 799.828 724.057 797.564 719.735 795.877L719.327 795.721L719.031 795.611L718.413 795.39C713.67 793.739 708.888 793.583 704.406 794.972L703.944 795.122L702.584 795.578L701.375 794.806C699.147 793.382 696.65 792.179 693.907 791.188L693.217 790.945L690.323 789.952L691.372 787.078C692.165 784.906 690.711 780.642 688.614 778.812C685.349 775.979 680.655 775.185 673.365 775.722L672.377 775.801L671.595 775.872L670.422 775.988L666.722 776.385L666.721 776.402C666.675 777.041 666.646 777.628 666.634 778.183L666.628 778.592L666.629 778.992C666.645 780.369 666.764 781.641 666.993 782.828L667.097 783.331L667.932 787.055L664.117 786.987L662.453 786.962C656.883 786.895 651.034 786.983 644.147 787.21L637.349 787.463L620.009 788.196L604.798 788.73L600.265 788.881L600.049 786.013C599.763 782.228 596.527 779.715 590.795 778.599L590.426 778.529L584.438 777.446L589.357 772.982L589.754 772.609L590.165 772.208C594.121 768.27 595.45 764.662 593.821 761.176C591.916 757.091 586.039 755.895 580.642 758.115L580.27 758.271L579.888 758.442C578.873 758.912 577.866 759.503 576.258 760.539L574.206 761.874L573.46 762.35C571.681 763.472 570.505 764.105 569.017 764.719C565.082 766.348 561.406 766.462 555.376 765.709L554.838 765.641L553.558 765.47L550.292 765.015L549.484 764.909L548.663 764.807C542.501 764.074 538.599 764.47 535.305 766.575C533.197 767.921 532.004 769.644 530.162 773.667L529.287 775.607L528.901 776.44C526.685 781.157 525.004 783.421 521.694 785.384C519.582 786.642 517.58 787.392 514.046 788.42L511.53 789.147L510.636 789.417C510.096 789.585 509.648 789.734 509.174 789.904C505.325 791.272 501.843 793.238 498.571 795.874L498.063 796.288L497.512 796.747C494.327 799.435 491.604 802.348 486.955 807.81L483.569 811.805L482.366 813.207L481.371 814.345C481.264 814.466 481.158 814.586 481.053 814.704L480.107 815.758C472.733 823.853 465.355 831.316 457.841 838.234L456.264 839.676L454.64 841.138L453.303 842.323C448.933 846.172 444.213 850.068 436.881 855.954L427.793 863.234L424.934 865.541C416.347 872.496 411.117 876.982 405.787 882.048L404.465 883.314L404.371 883.857C404.32 884.161 404.264 884.511 404.203 884.903C404.203 884.903 399.001 917 403.724 943.322C408.448 969.644 410.121 958.942 414.902 965.403L416.009 966.889C418.63 970.377 420.652 972.845 422.844 975.137L425.433 977.81L428.411 980.223L430.292 981.36C431.651 982.181 433.006 982.826 434.364 983.289C436.237 983.933 438.74 982.663 439.971 980.427L440.086 980.207L440.888 978.599L442.684 978.548C443.105 978.535 443.534 978.471 443.953 978.354C448.205 977.183 450.32 972.12 448.241 968.189L448.126 967.979L447.049 966.067L446.497 965.105C445.704 963.747 444.971 962.599 444.23 961.587L443.951 961.213L439.817 955.776L450.224 956.747L451.075 956.831L452.244 956.955L455.992 957.381C459.893 957.819 463.66 958.216 467.334 958.575L470.462 958.874L475.935 959.374L477.058 959.486L479.489 959.743L485.312 960.373L487.386 960.586L488.541 960.698C489.653 960.803 490.65 960.888 491.651 960.963L492.751 961.042C501.137 961.613 507.681 961.234 513.623 959.561C523.287 956.826 533.004 951.178 543.524 942.828C554.276 934.291 562.052 926.252 566.731 917.911C566.819 917.754 566.832 917.63 566.771 917.478L566.726 917.383L564.948 914.122L568.511 913.07C571.358 912.23 573.774 911.159 575.804 909.788C582.054 905.583 584.146 897.168 579.614 892.769L579.413 892.581L579.138 892.331L575.311 886.595L580.847 885.779C582.699 885.493 584.325 885.17 585.845 884.774C595.963 882.145 601.162 874.076 596.682 866.313L596.532 866.06L594.724 863.07L597.953 861.735C598.645 861.449 599.361 861.179 600.154 860.901L600.639 860.733L601.124 860.569L602.939 859.968C606.778 858.702 610.536 857.739 614.282 857.081C617.243 856.572 620.207 856.243 623.173 856.095L624.285 856.048L625.526 856.005L625.533 855.969L626.259 855.979L628.796 855.892L628.746 856.022C632.51 856.115 636.293 856.482 640.077 857.119L640.972 857.272C642.286 857.502 643.535 857.741 644.869 858.013L650.644 859.236C651.695 859.454 652.611 859.633 653.52 859.796L654.399 859.949L663.701 861.522L655.199 865.611L654.981 865.72L654.762 865.834L653.824 866.352C648.046 869.616 644.628 873.339 643.825 877.932C642.574 885.098 646.65 888.398 656.259 889.512L657.062 889.599L657.909 889.678L658.465 889.722L682.529 891.352L659.744 895.724C654.226 896.782 648.651 898.213 643.021 899.998C642.584 900.136 642.111 900.306 641.599 900.51L641.207 900.669L638.891 901.628L636.669 903.234C632.769 906.127 631.681 908.997 633.627 911.847L633.761 912.037L634.968 913.688L633.872 915.414C630.724 920.372 631.136 926.689 634.899 931.824C638.039 936.107 643.12 938.833 650.051 940.396L650.588 940.514L652.11 940.839L654.331 941.189L655.942 941.41L657.178 941.554L658.012 941.64L659.294 941.759L662.791 942.054C667.761 942.478 670.313 942.82 673.375 943.585C677.486 944.61 681.107 946.28 685.925 949.127L686.486 949.461L687.672 950.177L689.974 951.592L692.201 952.976L692.952 953.437L693.881 953.998C700.738 958.091 705.257 959.628 710.014 958.91C713.036 958.455 715.572 957.35 717.821 955.593L718.174 955.31L721.625 952.47L721.523 951.894L722.274 950.862C723.712 948.885 729.837 937.351 729.841 937.343C733.794 930.402 737.604 925.609 742.419 922.437L742.834 922.169L743.78 921.59L744.86 921.361L745.405 921.447C746.99 921.694 747.46 922.398 747.907 923.589C748.022 923.893 748.113 924.229 748.203 924.636L748.286 925.04L748.371 925.5L748.503 926.299L748.641 927.233L748.798 928.384L748.967 929.714C749.099 930.786 749.244 932.03 749.408 933.496L751.222 950.209L751.721 954.647L752.181 958.605C752.219 958.926 752.257 959.245 752.296 959.563L752.687 962.769L753.115 966.122C754.216 974.571 755.305 981.367 756.433 986.523L756.641 987.45L756.781 988.051L757.143 989.592C763.615 1017.31 766.896 1040.19 767.059 1063.12C767.206 1087.76 761.831 1109.76 750.173 1127.89C739.059 1145.19 722.838 1157.74 704.559 1162.08C694.924 1164.35 685.367 1163.86 677.664 1160.02C676.258 1159.32 675.259 1158.61 673.437 1157.08L672.831 1156.57C670.424 1154.53 669.362 1153.83 668.08 1153.53C667.922 1153.49 667.769 1153.46 667.621 1153.44L667.401 1153.42L664.678 1153.21L664.63 1150.48C664.527 1144.66 661.75 1142.39 662.011 1151.46C662.011 1151.46 662.512 1164.55 662.648 1166.2L662.744 1167.28L662.781 1167.67L661.172 1173.28C590.968 1200.09 183.978 1200.56 121.184 1174.33L119.388 1173.53L108.284 1168.2C108.284 1168.2 130.535 1163.02 115.321 1164.94C99.0007 1167 80.0007 1157 69.7027 1140.16L65.9485 1133.97L64.7995 1132.04L64.1627 1130.96C62.6322 1128.34 61.5419 1126.34 60.3877 1124.04C55.7309 1114.74 51.8642 1104.73 48.685 1093.97C42.7688 1073.94 39.6695 1052.24 38.7442 1027.7C37.0696 983.31 41.6506 936.459 51.7665 887.646C61.5781 840.298 76.4463 794.276 96.0641 750.757C105.871 729.003 116.68 708.197 128.531 688.363L129.805 686.242L131.192 683.95L132.615 681.615L134.046 679.287L135.351 677.184L136.666 675.085L137.992 672.99C150.098 653.966 160.862 639.927 173.303 627.815C184.359 617.052 196.007 606.133 208.246 595.057L207.983 590.42L207.972 590.335C207.713 588.809 203.105 575.772 207.761 565.614L208.291 564.473C212.504 555.556 213.117 557.849 217.148 555.036L217.313 554.919C226.153 548.588 237.417 544.248 250.773 541.353C254.199 540.609 257.423 540.278 261.965 540.097L262.593 540.073L263.416 540.045L266.948 539.938C273.603 539.725 278.593 537.378 282.441 532.522L282.726 532.156L283.014 531.774L283.284 531.403C284.223 530.091 285.121 528.592 286.57 526.017L287.562 524.257L288.039 523.425L288.528 522.587C290.189 519.77 291.368 518.113 293.035 516.3C298.07 510.825 305.882 507.611 314.118 507.075C328.723 506.122 343.101 510.038 364.258 519.034ZM555.929 800.699L554.739 806.554C554.627 807.107 554.565 807.649 554.555 808.178L554.558 808.572L554.642 811.242L551.999 811.634C549.861 811.951 547.741 812.282 545.643 812.626L543.551 812.975L523.822 816.321L541.859 807.259L542.225 807.08L542.324 807.03L543.017 806.699L545.186 805.691L550.522 803.242L555.929 800.699Z" fill="#979797"/>
<path fill-rule="evenodd" clip-rule="evenodd" d="M540.417 498.75C541.535 503.537 540.514 508.934 540.701 513.847C540.879 518.542 541.433 523.21 542.249 527.836C550.831 523.322 560.973 522.742 570.753 524.195C583.404 526.075 598.043 530.235 607.958 538.687C610.406 540.775 612.434 543.247 614.132 545.972C616.17 549.242 617.471 552.936 620.702 555.279C625.7 558.904 631.896 560.307 636.701 564.324C641.6 568.419 644.641 574.541 645.284 580.859C645.627 584.222 645.072 587.366 644.434 590.646C643.862 593.597 644.143 594.808 644.92 597.649C645.53 599.879 644.366 602.41 642.468 603.64C646.537 606.433 650.551 609.312 654.495 612.308C677.474 629.748 696.905 651.488 710.375 677.068L710.701 677.703L711.078 678.467C714.36 685.211 722.949 704.927 724.016 709.36C724.779 711.675 725.518 713.999 726.205 716.337C728.019 722.533 729.558 728.806 730.833 735.131L731.174 736.858C732.209 742.17 733.99 748.462 733.703 754.124C736.686 769.582 739.329 785.105 741.585 800.693C741.88 802.735 741.067 804.394 739.805 805.495C742.822 805.98 745.82 806.576 748.785 807.177L750.507 807.539L751.369 807.729C757.545 809.122 763.639 811.15 767.684 816.337C772.045 821.948 772.134 829.158 767.754 834.808C764.035 839.608 758.604 841.888 752.934 843.328C751.815 843.608 750.684 843.868 749.554 844.097C748.795 844.257 748.295 843.218 749.014 842.818L750.217 842.153L751.859 841.253C756.133 838.897 760.569 836.238 762.934 831.988C766.145 826.218 763.604 820.877 758.094 817.948C753.481 815.492 747.776 814.863 742.653 814.025L740.538 813.675C735.183 812.82 729.72 812.265 724.315 812.877C719.585 813.417 714.795 815.028 710.974 817.917L710.62 818.195L710.255 818.502C706.904 821.406 702.086 827.928 708.405 829.808C713.235 831.236 719.12 830.881 724.197 831.158L724.854 831.198C729.104 831.488 733.545 831.488 737.844 831.998C739.384 832.177 740.905 832.427 742.395 832.778C746.665 833.788 745.195 839.468 741.434 839.868C740.514 839.968 739.575 840.017 738.634 840.038C736.174 841.888 732.774 842.728 729.865 843.877C727.085 844.978 724.295 846.068 721.485 847.138C723.905 847.248 726.325 847.448 728.735 847.748C729.514 847.837 729.524 848.888 728.735 848.968C722.934 849.558 717.134 850.198 711.354 851.007C702.405 852.248 693.514 853.908 684.825 856.437C678.474 858.294 672.2 860.504 666.115 863.085L664.274 863.877L663.514 864.208C657.992 866.602 650.847 869.403 647.674 874.677C646.014 877.427 645.285 881.677 647.625 884.308C650.127 887.141 655.37 886.818 658.875 886.955L659.155 886.968C666.575 887.328 674.004 887.377 681.434 887.118C697.004 886.568 712.585 884.868 727.875 881.877C730.695 881.328 731.915 885.558 729.075 886.218C711.039 890.408 692.806 892.707 674.301 892.814L672.274 892.818C665.066 894.196 657.996 896.251 650.986 898.57L649.585 899.038C645.445 900.437 638.375 901.828 635.934 905.937C634.315 908.667 634.884 910.538 636.485 911.808C639.304 914.038 645.304 914.457 648.224 914.568C659.924 915.007 671.634 915.087 683.344 914.837C689.195 914.707 695.045 914.498 700.895 914.198C706.615 913.898 712.724 913.048 718.424 913.597C720.875 913.837 721.695 917.437 719.035 918.108C712.005 919.888 704.122 919.733 696.859 919.96L696.024 919.988C688.224 920.267 680.415 920.388 672.615 920.368C665.92 920.341 659.226 920.206 652.538 919.96L646.626 919.725L645.578 919.675C642.427 919.507 639.209 919.143 636.415 917.847C633.835 922.167 635.764 927.957 639.094 931.377C642.264 934.638 646.835 936.238 651.214 937.238C651.625 937.328 652.035 937.417 652.445 937.498C662.065 939.457 671.865 939.288 680.865 943.707C688.434 947.427 695.365 953.627 703.844 955.097C711.424 956.417 716.934 953.078 720.974 946.898C721.195 946.558 721.415 946.218 721.625 945.877C724.804 940.757 727.094 935.118 730.445 930.097C732.155 927.538 734.085 925.078 736.445 923.078C737.504 922.167 744.924 918.228 746.085 917.048C751.075 911.927 746.655 901.158 747.955 894.738C749.474 887.267 756.045 884.638 759.985 878.847C767.474 867.828 746.934 857.507 753.075 845.457C753.155 845.308 753.254 845.198 753.384 845.127C753.924 844.837 754.785 845.198 754.735 845.908C754.054 854.888 762.615 861.068 765.705 868.847C769.224 877.698 763.604 883.058 757.865 888.968C750.504 896.558 755.684 905.058 754.045 914.198C753.831 915.396 753.487 916.452 753.04 917.397C754.298 918.177 755.268 919.469 755.481 921.273C758.005 942.673 760.718 964.007 765.148 985.111L766.096 989.594L767.365 995.576C770.522 1010.54 773.47 1025.56 774.03 1040.85C775.789 1053.76 776.487 1066.77 775.445 1079.77C772.285 1119.32 750.174 1160.7 710.004 1172.84C700.705 1175.65 690.844 1176.38 681.304 1174.41C678.035 1173.74 673.455 1172.26 669.344 1170.02C669.589 1172.65 669.783 1175.29 669.864 1177.92C671.219 1179.43 671.831 1181.71 671.06 1183.65C667.784 1182.58 664.806 1180.87 662.125 1178.53L661.681 1178.14C660.091 1172.23 659.626 1165.77 659.395 1159.55L659.335 1157.78C659.274 1156.06 659.235 1154.37 659.174 1152.72C658.835 1142.45 659.075 1132.16 659.604 1121.9L659.994 1114.34C660.887 1096.73 661.614 1079.15 661.125 1061.49C660.565 1041.16 658.825 1020.92 656.645 1000.7C655.514 990.267 654.235 979.858 652.924 969.448C651.875 961.068 650.115 952.048 650.085 943.408C643.354 941.968 636.745 939.207 632.604 933.558C628.214 927.568 627.565 919.908 631.464 913.767C627.695 908.608 630.785 903.748 635.445 900.468C628.285 896.457 624.295 885.517 623.235 877.908C622.514 872.687 622.285 864.877 624.514 859.007C621.315 859.118 618.115 859.448 614.915 859.998C611.214 860.648 607.585 861.597 604.004 862.778L602.191 863.377C601.277 863.684 600.247 864.045 599.224 864.468C605.695 875.167 597.384 884.868 586.724 887.638C584.695 888.167 582.625 888.538 580.535 888.837C575.825 889.488 571.014 889.687 566.344 890.118C557.405 890.937 548.415 892.108 539.445 892.488C537.474 892.578 536.205 891.658 535.604 890.377C535.585 890.358 535.575 890.347 535.575 890.328C535.365 889.988 535.224 889.627 535.174 889.248C535.205 889.278 535.245 889.298 535.274 889.318C534.844 886.917 536.285 883.998 539.445 883.648C552.395 882.187 565.524 882.118 578.514 881.048L579.346 880.979C583.424 880.627 588.227 879.98 591.455 877.398C594.455 874.998 594.724 871.877 593.524 869.058C593.504 869.127 593.485 869.207 593.474 869.278C593.384 869.837 592.615 869.818 592.365 869.427C591.615 868.288 591.424 867.167 591.615 866.087C590.714 865.048 589.625 864.127 588.445 863.417C583.214 860.238 576.335 859.368 570.384 858.427C563.875 857.398 557.315 856.927 550.745 856.618C537.815 856.007 524.844 857.058 512.125 859.377C511.594 859.468 511.375 858.728 511.895 858.558C516.854 856.917 521.924 855.538 527.054 854.448C526.934 854.427 526.815 854.408 526.695 854.377C526.245 854.267 525.924 853.718 526.075 853.278C526.094 853.207 526.125 853.138 526.155 853.078C523.974 852.078 523.065 848.718 525.705 847.358C533.934 843.108 543.594 841.187 552.625 839.437C561.295 837.767 570.054 836.597 578.825 835.558C593.655 833.818 609.825 833.858 624.094 829.177L624.681 828.98C630.492 826.976 637.429 822.915 637.835 816.058C638.434 805.687 623.024 808.388 616.604 808.638C599.035 809.308 581.485 810.528 563.995 812.408C560.424 812.788 556.854 813.177 553.285 813.578C547.815 814.187 542.335 814.828 536.875 815.507C533.825 815.888 530.705 816.388 527.565 816.868C526.585 817.108 525.625 817.278 524.665 817.368C524.594 817.377 524.535 817.358 524.485 817.328C519.915 817.968 515.325 818.457 510.865 818.318C510.354 818.308 510.035 817.507 510.575 817.267C516.335 814.828 522.745 813.388 529.174 812.257C533.155 809.288 537.964 806.908 541.915 804.608C547.335 801.448 553.545 796.798 559.695 794.908C562.464 792.728 565.604 790.978 568.495 789.788C567.665 788.498 567.365 786.707 567.514 785.198C568.065 779.788 572.395 776.767 577.395 775.707C578.945 775.388 580.735 775.148 582.645 775.058C582.684 774.048 583.134 773.058 584.134 772.318L584.429 772.094L584.639 771.927C587.995 769.201 594.658 761.528 586.634 760.968C582.375 760.667 578.774 763.788 575.384 765.898C568.344 770.288 561.535 770.507 553.495 769.417L549.881 768.898L549.28 768.817C543.467 768.054 537.57 767.949 534.325 773.877C530.844 780.218 529.625 785.998 522.604 789.488C515.895 792.818 508.445 793.478 502.285 798.058C495.684 802.957 490.724 809.837 485.325 815.937C473.415 829.377 459.785 841.248 445.745 852.408L443.247 854.387C430.318 864.605 416.971 874.666 402.495 882.538C402.395 882.587 402.294 882.608 402.205 882.608C401.815 882.568 401.524 882.068 401.875 881.728C418.785 865.298 438.565 851.978 455.934 835.988C463.634 828.898 470.964 821.437 478.014 813.698C484.174 806.908 489.634 799.278 496.815 793.498C500.304 790.687 504.075 788.538 508.294 787.038C512.235 785.627 516.655 784.927 520.285 782.767C527.395 778.548 526.705 768.548 533.815 764.007C539.911 760.112 547.338 761.535 554.097 762.46L554.905 762.568C559.285 763.148 563.815 763.638 567.995 761.908C572.134 760.198 575.464 756.998 579.634 755.298C585.445 752.908 593.684 753.478 596.665 759.868C599.514 765.968 595.625 771.488 591.085 775.538C597.274 776.658 602.705 779.648 603.165 785.748C607.705 785.597 612.235 785.437 616.774 785.278C632.585 784.728 648.474 783.667 664.295 783.948C663.934 782.337 663.774 780.677 663.754 778.988C663.745 778.048 663.785 777.108 663.854 776.148C663.974 774.507 665.054 773.517 666.655 773.347L670.228 772.965L671.424 772.847C678.118 772.214 685.604 772.081 690.705 776.507C693.445 778.898 695.655 784.398 694.315 788.068C697.434 789.138 700.405 790.507 703.115 792.238C708.485 790.437 714.125 790.638 719.524 792.517L720.165 792.746C724.004 794.155 729.444 796.824 731.53 800.632C726.467 766.314 719.644 732.289 711.067 698.675C705.592 685.251 698.674 672.42 690.285 660.578C669.155 630.738 638.714 610.218 611.375 586.628C608.963 589.282 606.364 591.809 603.934 594.24L602.904 595.276C597.954 600.289 592.791 605.086 587.514 609.751C576.485 619.501 564.876 628.5 553.35 637.643C530.115 656.076 509.108 675.649 491.63 699.714C491.316 700.148 490.445 699.895 490.688 699.318C502.676 670.821 527.528 649.156 550.104 629.053C561.976 618.482 574.126 608.166 585.541 597.096C590.863 591.935 596.018 586.596 600.881 580.999L602.091 579.595C605.271 575.873 612.717 564.509 617.638 572.708C618.669 574.423 618.624 576.617 617.638 578.334C616.24 580.774 614.465 583.101 612.524 585.336C619.424 589.089 626.182 593.052 632.792 597.247C632.412 595.226 632.507 592.992 632.86 590.757L632.976 590.047L633.457 587.275C634.148 583.189 634.503 579.39 631.91 575.404C628.668 570.418 622.555 568.863 617.685 565.982C612.075 562.662 609.145 558.22 606.141 552.582C600.388 541.789 587.391 537.461 576.221 533.989L574.815 533.553C564.493 530.354 553.327 528.642 543.007 531.716C543.975 536.222 545.242 540.664 546.825 544.991C548.51 549.597 552.359 554.718 551.965 559.693C551.693 563.136 547.563 566.816 544.136 564.185C539.282 560.461 538.312 554.396 537.011 548.618C535.753 543.03 534.95 537.306 534.608 531.589C534.279 526.079 534.536 520.573 535.216 515.101L535.737 511.082L535.863 510.149C536.43 506.086 537.274 501.822 539.559 498.638C539.779 498.332 540.317 498.325 540.417 498.75ZM399.588 475.907C399.661 476.232 399.712 476.553 399.758 476.874C400.092 478.244 400.217 479.561 400.176 480.884C400.196 481.361 400.161 481.839 400.072 482.312C399.893 483.869 399.518 485.467 399.011 487.214C397.932 490.931 396.696 494.603 395.315 498.22C392.585 505.373 389.362 512.198 385.378 518.74C378.181 530.557 369.032 540.366 358.246 548.845C360.293 550.534 362.294 552.291 364.299 554.016C373.99 562.356 383.419 571.074 392.552 580.022C408.771 595.915 424.664 612.103 440.184 628.679C447.839 636.854 455.352 645.136 462.824 653.474L463.069 653.754L463.334 654.07C465.987 657.278 471.291 664.931 475.248 663.702C477.246 663.08 479.35 660.099 480.712 658.677L483.221 656.061C484.055 655.186 484.883 654.307 485.698 653.415C500.294 637.423 514.105 620.817 527.073 603.46C533.401 594.991 539.518 586.363 545.413 577.585C548.443 573.072 551.417 568.519 554.331 563.928C557.149 559.488 559.428 554.716 563.581 551.402C566.629 548.97 570.852 551.2 570.084 555.187C568.874 561.466 564.528 566.776 561.106 572.083C557.669 577.416 554.151 582.697 550.554 587.922C543.631 597.982 536.408 607.83 528.927 617.48C522.485 625.79 515.763 633.887 508.86 641.82L506.973 643.98C499.548 652.445 492.26 661.431 484.055 669.157C476.708 676.076 468.684 674.06 461.991 667.336C453.526 658.835 445.667 649.641 437.522 640.83C421.246 623.222 404.8 605.748 388.184 588.46L382.722 582.77C376.353 576.122 370.01 569.432 363.833 562.621L363.036 561.733C355.991 553.808 348.828 543.881 338.813 539.852C338.089 539.561 338.355 538.533 339.137 538.677C345.548 539.862 350.9 543.092 355.88 546.951C360.356 539.544 364.35 531.736 367.832 523.75L365.598 522.78C349.614 515.873 331.599 508.909 314.438 510.029C307.522 510.479 300.143 513.099 295.368 518.291C291.044 522.994 288.885 529.336 284.917 534.345C280.372 540.082 274.444 542.664 267.169 542.897L263.631 543.004C259.563 543.136 255.661 543.349 251.534 544.245C240.352 546.669 228.563 550.602 219.185 557.319C215.783 559.755 212.271 563.105 210.626 566.796C208.995 570.453 208.526 574.732 208.367 578.679C208.29 580.603 208.867 583.144 208.385 584.985C208.44 584.774 208.465 584.886 208.472 585.106C209.971 586.288 210.992 588.253 211.103 590.211C220.451 585.339 230.128 581.069 239.993 577.22C250.977 572.935 262.302 569.501 273.629 566.249C284.715 563.068 296.319 561.752 307.62 559.484C309.059 559.195 309.559 561.138 308.218 561.654C296.34 566.216 284.847 571.624 272.87 575.916C260.899 580.207 249.017 584.851 237.393 590.013C214.925 599.994 193.222 612.694 175.521 629.925C158.233 646.755 144.898 667.2 132.496 687.756C120.006 708.457 108.859 729.912 98.924 751.951C79.27 795.55 64.532 841.391 54.829 888.215C45.386 933.781 40.11 980.974 41.867 1027.55C42.701 1049.67 45.403 1071.8 51.687 1093.08C54.689 1103.24 58.447 1113.17 63.195 1122.65C68.202 1132.65 74.948 1141.55 79.52 1151.72C79.896 1152.56 80.04 1153.36 80.019 1154.1C99.519 1171 130.041 1159.61 151.145 1149.53C199.705 1126.31 247.365 1100.9 292.665 1071.74C337.375 1042.96 379.745 1010.84 421.115 977.498C417.915 974.198 415.094 970.498 412.615 967.148C407.495 960.228 403.645 952.388 400.995 944.207C397.895 934.627 396.934 924.377 397.815 914.368L398.065 911.537C398.908 902.085 399.881 892.493 401.955 883.257C401.974 883.138 402.065 883.087 402.165 883.087C402.264 883.087 402.365 883.148 402.405 883.257C407.995 901.148 408.445 920.377 414.724 938.038C417.254 945.138 421.174 951.998 425.875 957.888C427.905 960.437 430.285 962.648 432.714 964.808C432.875 963.707 433.094 962.618 433.424 961.548L433.686 960.701C434.011 959.672 434.414 958.529 434.974 957.517C434.184 957.288 433.415 957.038 432.655 956.757C432.054 956.538 431.924 955.568 432.655 955.408C434.645 954.948 436.695 954.718 438.785 954.618C439.115 954.568 439.434 954.558 439.754 954.578C443.665 954.457 447.645 954.738 451.415 954.798C457.945 954.898 464.455 955.017 470.974 955.308C483.455 955.847 497.544 958.238 509.825 955.337C520.985 952.698 531.985 945.257 540.934 938.257C548.754 932.138 554.785 924.868 561.274 917.618C560.808 917.691 560.346 917.76 559.885 917.824L555.7 918.397C550.418 919.103 544.147 919.656 539.955 917.118C538.354 916.148 538.815 913.948 540.445 913.347C544.724 911.778 550.035 913.078 554.594 912.858C558.174 912.687 561.795 912.308 565.325 911.568C566.485 911.328 567.634 911.048 568.774 910.718C577.134 908.308 586.955 899.828 580.315 890.568C580.065 890.218 580.344 889.898 580.684 889.837C580.835 889.808 580.995 889.837 581.125 889.948C588.684 896.207 584.754 907.427 577.604 912.238C575.145 913.898 572.365 915.058 569.485 915.908C570.035 916.917 570.134 918.158 569.474 919.337C563.875 929.318 554.395 938.087 545.514 945.138C536.395 952.377 525.875 959.207 514.565 962.408C501.504 966.087 487.155 963.318 473.905 962.148C466.724 961.517 459.565 960.767 452.395 959.937C450.474 959.718 448.485 959.548 446.464 959.358C448.365 961.858 449.875 964.738 450.865 966.468C454.085 972.087 451.115 979.488 444.875 981.207C444.224 981.388 443.554 981.488 442.895 981.507C441.214 984.877 437.214 987.358 433.514 986.087C431.905 985.538 430.354 984.788 428.865 983.888C405.594 1004.33 381.094 1023.51 355.895 1041.49C309.165 1074.83 260.184 1105.28 209.395 1132.05C197.955 1138.08 186.428 1143.95 174.803 1149.59L164.797 1154.41C153.722 1159.74 142.387 1165.04 130.625 1168.35C128.332 1168.99 125.931 1169.51 123.471 1169.91C123.439 1170.13 123.431 1170.34 123.446 1170.54C121.234 1170.84 119.304 1170.88 117.656 1170.68L117.281 1170.63C102.864 1171.64 87.443 1168.12 78.168 1157.59C76.622 1158.67 74.368 1158.79 72.379 1157.23C62.376 1149.38 56.413 1137.43 51.18 1126.02C45.874 1114.45 41.715 1102.39 38.659 1090.03C32.555 1065.35 30.134 1039.9 30.0064 1014.51C29.545 916.694 54.043 818.016 96.595 730.197C107.387 707.924 119.283 686.067 132.489 665.13C145.659 644.25 160.952 624.845 180.537 609.617C186.169 605.239 192.028 601.236 198.071 597.548C194.015 595.538 192.404 590.425 192.12 585.883C191.49 575.796 192.692 564.175 198.598 555.664C206.883 543.724 221.714 536.362 235.466 532.782C242.645 530.914 250.071 529.825 257.476 529.457C261.294 529.266 265.261 529.894 269.033 529.482C272.361 529.12 274.419 527.134 276.333 524.523C281.236 517.83 284.428 510.81 291.461 505.904C298.677 500.871 308.028 498.945 316.721 499.467C326.848 500.076 336.087 504.066 345.006 508.651C353.056 512.789 360.87 517.373 368.485 522.263C369.881 518.992 371.196 515.696 372.419 512.389C374.791 505.977 376.854 499.361 378.528 492.733C380.225 486.012 379.977 477.136 385.103 472.082C389.56 467.689 398.143 469.414 399.588 475.907ZM745.067 924.371L745.031 924.379C734.663 930.523 729.705 945.877 724.825 952.587C725.224 954.837 725.504 957.127 726.054 959.257C727.315 964.148 728.964 968.998 730.875 973.658C734.235 981.888 738.445 989.728 742.335 997.707C745.465 1004.12 748.532 1010.66 750.918 1017.41C750.659 1017.67 750.42 1017.98 750.217 1018.36C747.629 1023.21 745.603 1022.25 740.828 1021.2L740.825 1021.19C738.094 1012.83 734.155 1004.98 730.615 996.957L729.754 994.998L728.903 993.039C725.945 986.174 723.246 979.246 721.674 971.888C720.674 967.198 720.264 962.377 720.205 957.587C717.615 959.718 714.504 961.248 710.585 961.837C702.197 963.104 694.601 957.851 687.767 953.637L686.227 952.694C681.948 950.091 677.707 947.686 672.774 946.457C667.174 945.058 661.384 945.058 655.695 944.347C655.014 944.257 654.325 944.167 653.634 944.058C655.854 951.408 656.884 959.388 658.205 966.748C660.045 977.068 661.545 987.478 662.985 997.858C665.785 1017.98 667.735 1038.26 668.724 1058.55C669.682 1078.19 669.2 1097.77 668.489 1117.41L668.134 1126.98C667.85 1134.78 667.616 1142.59 667.754 1150.39C668.134 1150.42 668.514 1150.48 668.895 1150.57C672.835 1151.49 675.524 1155.51 679.125 1157.3C686.724 1161.08 695.905 1161.03 703.995 1159.12C722.395 1154.76 737.695 1141.92 747.774 1126.23C759.875 1107.41 764.315 1085.26 764.174 1063.1C764.008 1038.16 759.969 1014.31 754.346 990.235L753.985 988.698C749.253 968.639 746.289 924.562 745.067 924.371ZM229.826 874.05C229.931 880.758 227.203 887.933 225.704 894.451C224.09 901.474 222.48 908.497 220.848 915.517L219.381 921.807C218.158 927.048 216.953 932.293 215.873 937.566C214.985 941.901 214.613 947.614 213.158 952.393C230.465 945.393 247.799 938.464 265.104 931.487C286.424 922.888 307.844 914.527 329.214 906.067C350.504 897.647 371.674 888.067 393.395 880.867C398.565 879.147 402.065 887.397 397.114 889.686C375.054 899.917 351.714 907.927 329.114 916.888L296.423 929.866C266.454 941.758 236.464 953.591 206.324 965.017C185.794 972.798 165.344 980.808 144.684 988.197C134.834 991.718 124.895 995.048 115.094 998.697C106.884 1001.76 98.0044 1006.3 94.9644 1015.12C94.8044 1015.58 94.1744 1015.39 94.2444 1014.92C95.4744 1006.38 101.815 1001.04 108.964 996.997C118.453 991.622 128.875 987.71 138.891 983.399L140.254 982.808C160.707 973.888 181.325 965.329 202.004 956.913C201.799 956.413 201.678 955.877 201.669 955.317L201.61 955.333C201.234 951.51 202.987 948.101 204.248 944.545L207.865 934.341C210.275 927.546 212.437 920.667 214.664 913.811C216.993 906.645 219.344 899.486 221.691 892.326C223.679 886.261 225.015 879.032 228.416 873.611C228.826 872.958 229.956 873.325 229.826 874.05ZM628.115 858.968L627.857 860.27C627.557 861.793 627.275 863.328 627.205 864.868C627.004 868.898 627.464 872.927 628.535 876.818C629.585 880.667 631.054 884.388 633.145 887.798C635.125 891.007 637.995 893.528 639.825 896.818C640.014 897.167 640.134 897.517 640.184 897.858C640.884 897.568 641.575 897.308 642.245 897.097C647.825 895.328 653.524 893.847 659.304 892.738L658.387 892.676L657.795 892.628C648.138 891.811 639.026 888.652 640.995 877.377C642.109 871.003 647.111 866.729 652.473 863.7L653.145 863.328C653.434 863.167 653.735 863.007 654.024 862.868C649.174 862.048 645.655 861.038 639.705 860.038C635.844 859.388 631.974 859.028 628.115 858.968ZM186.924 720.085C196.42 739.271 203.564 759.671 208.954 780.368C211.557 790.363 213.765 800.457 215.541 810.631L216.124 814.028L216.455 815.872C218.114 824.941 220.221 834.765 217.784 843.613C216.989 846.504 212.189 847.648 210.845 844.521C206.791 835.081 207.361 824.23 206.186 814.128C204.951 803.528 203.266 792.978 201.166 782.515C197.133 762.411 191.471 742.777 185.16 723.291L184.456 721.126C183.92 719.683 186.254 718.732 186.924 720.085ZM551.924 805.917C549.094 807.248 546.264 808.468 543.764 809.687C543.575 809.788 543.375 809.877 543.174 809.978C546.004 809.498 548.844 809.048 551.684 808.627C551.655 807.707 551.745 806.798 551.924 805.917ZM662.658 796.308C662.233 796.446 661.857 796.669 661.53 796.975L661.371 797.135C660.981 797.498 660.705 797.927 660.544 798.422C660.294 798.9 660.178 799.414 660.199 799.964L660.342 801.027C660.532 801.705 660.875 802.292 661.371 802.792L662.18 803.417C662.726 803.733 663.31 803.912 663.931 803.954L664.199 803.964L665.009 803.964C665.472 803.948 665.907 803.834 666.316 803.619C666.741 803.481 667.117 803.258 667.444 802.952L667.603 802.792C667.994 802.429 668.269 802 668.43 801.505C668.645 801.096 668.76 800.66 668.775 800.197L668.775 799.964L668.632 798.9C668.466 798.306 668.182 797.782 667.782 797.326L667.603 797.135L666.794 796.509C666.248 796.193 665.664 796.014 665.043 795.973L664.775 795.964H664.199C663.648 795.943 663.134 796.058 662.658 796.308ZM636.639 794.955C634.514 795.345 633.309 797.921 633.846 799.874C634.44 802.037 636.495 802.998 638.56 802.702L638.766 802.669C641.184 802.224 643.553 802.396 645.856 803.245C647.882 803.993 650.239 802.408 650.776 800.451C651.39 798.217 650.017 796.281 647.982 795.531C644.332 794.183 640.417 794.259 636.639 794.955ZM215.328 652.9C220.167 659.991 223.188 669.417 226.168 677.52L226.466 678.326C229.634 686.842 232.69 695.425 235.54 704.054C241.229 721.279 248.643 739.304 250.013 757.5C250.266 760.858 245.127 762.204 243.637 759.228C239.356 750.671 237.054 741.751 234.521 732.577C232.105 723.828 229.588 715.109 227.07 706.389C224.553 697.674 222.118 688.933 219.639 680.207C217.228 671.718 213.871 662.279 213.319 653.444C213.247 652.296 214.772 652.084 215.328 652.9ZM324.537 595.815C330.996 600.298 336.286 606.855 341.752 612.463C347.297 618.153 352.768 623.896 358.188 629.706C367.245 639.416 376.138 649.285 385.323 658.877C403.627 677.992 424.334 695.582 449.596 704.566C455.709 706.74 453.031 716.55 446.904 714.33C421.065 704.962 399.66 687.641 380.779 668.046C371 657.898 362.027 647.054 353.278 636.017C349.184 630.852 345.12 625.671 341.115 620.44L338.718 617.295C333.681 610.649 327.518 604.025 323.832 596.521C323.625 596.099 324.079 595.498 324.537 595.815Z" fill="black"/>
<path fill-rule="evenodd" clip-rule="evenodd" d="M625.529 304.003C623.376 285.088 626.162 245.552 626.348 243.15C627.529 227.965 620.414 168.002 606.964 173.527C584.401 155.666 554.351 151.722 526.251 149.838C467.883 145.924 405.79 154.909 360.72 194.189C338.432 214.588 316.732 244.257 318.477 275.149C298.226 304.431 269.676 344.598 294.908 378.831C303.485 389.768 317.116 393.841 327.891 402.124C349.562 419.604 363.159 444.69 385.036 462.066C442.996 514.149 541.413 525.029 598.359 465.789C642.394 422.885 635.274 358.699 627.529 304.003C622.321 267.23 629.728 340.904 625.529 304.003Z" fill="#D08B5B"/>
<path fill-rule="evenodd" clip-rule="evenodd" d="M448.28 69.6251C463.89 66.4751 479.919 64.5151 495.86 65.1051L497.089 65.1528C509.083 65.6322 524.273 66.6926 534.736 73.6671C535.338 73.0631 536.306 72.7531 537.184 73.1721C549.618 79.1071 563.294 83.3981 576.386 87.6621C589.418 91.9051 602.938 94.7061 616.597 95.8351C621.736 96.2601 626.134 101.809 622.88 106.786C622.106 107.972 621.352 109.17 620.601 110.371C621.857 110.24 623.113 110.105 624.369 109.978C628.502 109.562 632.631 113.973 632.386 117.997C632.233 120.528 631.96 123.029 631.556 125.5C633.13 125.467 634.695 125.703 636.207 126.342C643.863 129.575 643.33 138.694 642.757 145.632C641.963 155.26 638.362 165.458 631.676 172.664C636.668 177.849 640.202 184.041 642.31 191.395C643.839 196.765 644.69 202.485 644.27 208.075L644.136 209.749C643.617 215.815 642.584 222.531 638.22 226.895C635.98 229.145 633.22 229.965 630.589 229.705C632.18 243.685 633.2 257.745 634.16 271.755L634.61 278.451C636.752 310.831 638.361 343.422 637.94 375.855C637.549 406.165 631.56 435.585 612.97 460.195C596.039 482.605 571.73 499.125 544.23 505.405C529.41 508.795 514.28 509.035 499.28 506.875C492.009 505.825 484.69 504.215 477.789 501.675C470.15 498.855 464.66 494.705 459.52 488.485C457.089 485.535 458.259 479.255 463.1 479.845C470.421 480.733 477.105 481.803 484.124 483.968L485.129 484.285C492.12 486.525 499.36 488.195 506.669 488.905C521.64 490.355 536.839 488.895 551.18 484.355C574.53 476.955 594.64 460.465 607.53 439.745C622.83 415.185 624.56 387.305 624.339 359.065C624.102 328.077 623.094 297.07 621.449 266.114L621.169 260.955C620.299 245.025 619.459 229.085 618.72 213.145C618.49 208.145 618.14 203.105 617.509 198.115C611.74 194.735 606.57 190.075 603.2 184.325C596.43 187.125 589.31 189.145 582.759 190.755C567.585 194.487 551.831 195.393 536.386 193.056C532.22 194.777 527.971 196.29 523.657 197.592C522.491 198.109 521.325 198.617 520.16 199.115C509.759 203.565 499.209 207.335 488.23 210.095L485.533 210.768C479.755 212.192 473.479 213.595 467.33 214.035C466.32 214.425 465.23 214.755 464.039 215.045C458.44 216.405 452.629 216.835 446.89 216.355C441.299 215.885 437.259 210.235 440.339 204.945C442.589 201.085 444.86 197.235 447.15 193.395C439.18 196.715 430.95 199.475 422.65 201.815C414.27 204.175 405.77 206.165 397.259 207.995C392.709 208.965 388.14 209.825 383.6 210.795C380.35 211.485 375.36 211.845 372.709 213.985C369.78 216.335 368.95 221.815 367.839 225.195C366.379 229.585 365.009 233.995 363.759 238.455C361.27 247.355 359.23 256.385 357.65 265.505C356.07 274.635 355.009 283.855 354.419 293.105C353.83 302.345 354.089 311.645 353.14 320.845C352.629 325.725 347.39 328.235 343.52 324.825C343.066 324.425 342.608 324.021 342.155 323.612L341.48 322.995C338.169 319.995 334.959 316.815 332.31 313.235C331.83 312.575 331.37 311.885 330.94 311.185C330.87 311.185 330.81 311.165 330.74 311.115L330.005 310.562C321.918 304.543 308.406 296.694 300.52 306.695C298.007 309.881 296.72 313.938 295.653 317.851L293.779 324.856C292.567 329.428 291.426 334.026 290.759 338.705C289.249 349.185 290.009 361.265 297.22 369.665C300.1 373.025 304.07 375.425 308.499 376.055C310.97 376.395 313.41 375.975 315.86 375.665C318.35 375.355 320.749 375.855 323.24 375.615C327.2 375.225 328.93 379.965 327.45 382.945C326.65 384.545 325.709 385.925 324.64 387.095C325.499 387.835 326.32 388.635 327.11 389.475C329.45 390.225 331.549 391.835 333.12 393.965C334.39 395.685 335.049 397.555 335.16 399.525C335.299 400.015 335.419 400.515 335.53 401.025L337.675 404.507C338.147 405.271 338.617 406.025 339.089 406.765C344.549 415.365 350.61 422.645 358.14 429.505C365.39 436.105 373.259 442.015 380.07 449.095L380.872 449.936C387.222 456.627 393.915 464.726 391.43 474.455C390.79 476.955 387.299 478.755 385.02 477.065C377.69 471.625 373.999 463.005 367.78 456.405C361.379 449.605 354.289 443.495 347.87 436.715C341.799 430.315 337.009 423.065 333.4 415.085C331.959 416.675 329.86 417.805 326.95 418.245C321.95 418.995 317.289 416.065 315.11 411.735C313.709 412.355 312.28 412.915 310.839 413.355C303.259 415.675 298.49 407.245 301.35 401.015C302.879 397.675 304.789 394.775 307.16 392.335C299.749 391.315 292.209 387.485 287.339 382.705C275.12 370.695 273.44 352.645 276.19 336.595C277.65 328.085 280.169 319.475 283.44 311.485C284.009 310.095 284.62 308.695 285.289 307.315C284.919 307.305 284.539 307.145 284.299 306.835C282.089 303.815 279.4 301.345 277.759 297.965C276.249 294.865 274.57 291.725 273.379 288.495C270.93 281.885 269.73 274.425 268.93 267.435C267.28 253.125 267.919 238.905 270.11 224.685C273.839 200.465 282.847 177.287 296.118 156.949C295.395 156.569 294.703 156.111 294.058 155.569L293.739 155.291L293.221 154.823C289.434 151.396 289.761 144.973 293.221 141.502L294.314 140.407C295.697 139.032 296.891 137.943 299.126 136.446C299.456 136.225 299.793 136.017 300.134 135.823C298.964 133.661 298.558 131.133 299.373 128.344C302.213 118.628 316.193 118.972 325.054 123.209C334.857 114.46 345.727 106.865 357.509 100.715C385.57 86.0751 417.299 75.8651 448.28 69.6251ZM303.23 325.525C308.47 323.815 315.43 327.405 320.14 329.565C326.11 332.305 331.19 336.355 336.11 340.635C338.56 342.775 338.999 346.275 338.39 349.265C338.329 349.565 338.27 349.875 338.199 350.185C337.549 353.375 333.989 355.885 330.839 355.795C324.249 355.615 321.11 349.925 317.379 345.105C316.94 345.885 316.39 346.605 315.709 347.145L315.249 347.505C313.701 348.684 311.995 349.626 309.949 349.535C308.499 349.465 307.11 349.095 305.829 348.425C302.629 346.735 301.22 342.595 302.089 339.225C302.629 337.105 303.869 335.445 305.489 334.295L304.885 333.882C303.593 332.983 302.415 332.035 301.496 330.636L301.289 330.305H301.369C300.369 328.585 301.02 326.245 303.23 325.525Z" fill="#A55728"/>
<path fill-rule="evenodd" clip-rule="evenodd" d="M444.725 406.193C452.821 387.226 470.492 373.286 490.836 368.189C505.777 364.456 521.456 364.576 536.686 366.057C544.665 366.828 553.224 367.46 560.744 370.423C567.165 372.955 572.398 377.74 576.333 383.357C581.017 390.013 584.202 397.631 586.439 405.439C586.757 406.549 587.056 407.668 587.334 408.792C586.362 414.683 584.296 419.697 578.84 423.401C573.515 427.018 567.161 428.498 560.827 429.023C560.206 428.725 559.606 428.419 559.056 428.104C549.186 422.454 542.239 409.102 529.782 410.909C518.665 412.523 511.346 426.511 504.735 434.714C483.513 437.186 462.307 430.809 445.04 418.674C444.163 414.521 444.113 410.332 444.725 406.193ZM601.758 391.805C600.06 387.041 597.922 382.427 595.388 378.08C587.009 363.706 574.146 352.252 558.876 345.705C522.754 330.239 476.016 341.142 446.845 366.508C436.88 375.179 426.805 387.922 423.758 401.628C422.848 401.808 421.989 402.282 421.282 402.949C400.206 389.679 378.502 376.913 361.518 358.519C349.185 345.155 340.606 329.339 335.353 311.959C334.924 310.529 332.617 310.738 332.687 312.321C332.707 312.691 332.727 313.061 332.747 313.431C332.527 312.75 331.488 313.101 331.408 313.761C328.582 334.874 325.047 357.258 328.302 378.48C330.25 391.144 336.002 400.415 343.692 410.426C351.931 421.156 361.259 431.137 370.796 440.708C376.848 446.783 383.17 453.791 390.58 458.246C399.198 463.421 408.975 467.356 418.173 471.35C427.531 475.424 437.028 479.188 446.705 482.451C466.049 488.998 486.043 493.523 506.386 495.505C522.674 497.087 541.289 498.81 556.899 492.682C568.863 487.987 578.52 479.499 586.18 469.287C594.519 458.166 601.111 445.497 604.755 432.138C608.542 418.261 602.556 394.042 601.758 391.805Z" fill="black" fill-opacity="0.05"/>
<path fill-rule="evenodd" clip-rule="evenodd" d="M503.587 429.927C496.864 427.184 490.866 422.61 486.481 416.766C484.957 414.735 484.561 412.59 484.881 410.628C485.241 408.422 486.546 406.422 488.326 405.081C490.112 403.736 492.345 403.072 494.504 403.41C496.381 403.704 498.248 404.732 499.727 406.862L500.035 407.288C502.642 410.815 506.04 413.709 509.91 415.574C513.641 417.372 517.814 418.211 522.132 417.723C530.356 416.794 536.024 412.347 542.049 406.307C542.796 405.544 543.543 404.758 544.294 403.959C544.768 403.235 545.426 402.769 546.157 402.525C546.968 402.253 547.886 402.269 548.726 402.562C549.537 402.845 550.262 403.381 550.747 404.095C551.209 404.773 551.471 405.611 551.386 406.574C550.835 412.833 547.562 418.42 542.914 422.806C537.752 427.677 530.909 431.047 524.466 432.229C517.368 433.531 510.136 432.598 503.587 429.927ZM527.814 333.367C535.366 337.957 546.872 348.661 538.748 360.04C529.186 370.073 515.418 358.569 508.634 353.366C502.343 349.334 495.275 359.705 501.112 364.413C550.136 400.708 570.031 334.568 531.634 327.971C527.406 327.244 525.836 331.947 527.814 333.367ZM439.963 291.147C440.798 280.79 456.57 278.439 458.139 288.687C459.544 297.867 457.89 306.3 453.755 314.565C449.804 322.461 439.874 318.777 439.123 311.587C438.116 301.949 439.444 297.589 439.963 291.147ZM560.027 286.562C562.226 283.682 565.401 281.716 569.205 282.827C581.09 286.3 577.587 303.173 573.413 311.386C571.145 315.846 563.814 316.977 560.501 313.05C555.101 306.646 552.515 293.857 559.38 287.549C559.566 287.223 559.773 286.894 560.027 286.562ZM453.588 245.831L455.465 245.502C461.273 244.498 468.494 243.533 472.603 248.202C474.782 250.678 475.532 255.28 472.603 257.65C467.451 261.82 461.755 260.204 455.581 260.557C450.493 260.849 445.603 261.691 440.702 263.092C429.95 266.165 421.189 271.775 412.006 277.935C410.801 278.743 409.571 277.202 410.146 276.075C415.447 265.692 425.72 257.163 436.01 251.964C441.502 249.189 447.512 246.887 453.588 245.831ZM549.193 241.18L550.63 241.474C566.267 244.742 586.583 251.272 593.988 266.631C594.271 268.803 593.972 269.268 593.73 269.573L593.649 269.674C593.45 269.933 593.29 270.291 592.349 270.587C592.087 270.525 591.824 270.459 591.557 270.389C588.163 269.499 585.477 268.274 582.877 267.002L580.058 265.614C576.788 264.01 573.488 262.465 569.992 261.324C562.53 258.89 554.854 257.176 547.06 256.26C545.37 256.062 543.744 255.492 542.46 254.514C541.242 253.587 540.311 252.303 539.887 250.596C539.337 248.387 539.495 246.714 540.68 244.721C541.572 243.225 542.847 242.187 544.311 241.592C545.804 240.984 547.503 240.841 549.193 241.18Z" fill="black"/>
<path fill-rule="evenodd" clip-rule="evenodd" d="M608.985 353.395C593.977 360.623 573.039 349.962 562.948 338.795C559.275 334.729 556.441 323.096 557.854 315.718C561.681 295.737 576.061 283.745 591.242 279.65C612.286 273.972 633.464 288.356 630.995 305.33C628.654 321.417 625.107 344.752 608.985 353.395ZM506.834 315.013C505.631 336.788 488.144 355.847 467.244 361.494C433.57 370.89 416.928 347.219 409.39 321.718C408.641 319.184 406.88 311.45 411.605 304.816C430.188 278.721 475.401 283.169 497.983 290.333C504.593 296.654 507.295 305.777 506.834 315.013ZM625.291 277.456C625.281 277.469 625.269 277.48 625.259 277.493C625.182 277.446 625.106 277.398 625.027 277.352C625.114 277.388 625.206 277.419 625.291 277.456ZM653.465 279.973C651.509 257.803 581.946 266.292 573.813 268.109C551.617 274.637 532.446 292.397 507.63 284.59C481.917 255.927 395.328 264.147 377.176 278.748C373.74 277.4 369.562 278.123 365.135 279.395C342.401 278.574 238.617 286.411 259.845 315.426C263.067 317.661 266.286 315.387 266.375 310.783C377.038 270.836 366.311 308.253 379.435 303.883C381.439 304.46 383.53 304.825 385.359 305.209C395.517 308.477 398.966 307.467 400.304 318.87C409.497 406.921 526.752 376.531 517.135 304.307C526.657 303.783 534.986 299.666 545.055 303.686C552.046 371.723 606.797 374.469 623.274 350.884C635.699 334.514 630.772 309.81 647.851 296.932C654.593 302.574 655.027 283.532 653.465 279.973Z" fill="#2C1B18"/>
</svg>
