<svg width="49" height="48" viewBox="0 0 49 48" fill="none" xmlns="http://www.w3.org/2000/svg">
<path d="M20.938 47.9965C25.7913 47.9965 30.6457 48.0021 35.4991 47.9933C37.1538 47.991 38.7235 47.7038 39.9884 46.6067C41.2058 45.5507 41.791 44.2101 41.7198 42.6913C41.5506 39.0041 41.3013 35.3229 41.0896 31.6365C40.8793 27.9779 40.7363 24.3146 40.4524 20.6593C40.209 17.5345 38.021 15.7306 34.6041 15.7228C27.4331 15.7062 20.2571 15.7182 13.0867 15.7182C11.0644 15.7182 9.04065 15.6984 7.01984 15.7228C3.68312 15.7648 1.48224 17.6912 1.28392 20.8003C0.835728 27.8912 0.397438 34.9822 0.0120735 42.0791C-0.188766 45.7885 2.12443 47.9826 6.13577 47.9937C11.0718 48.0061 16.0062 47.9964 20.9388 47.9964L20.938 47.9965ZM20.8573 45.2805C15.9757 45.2805 11.0941 45.2883 6.21138 45.2782C3.79433 45.2736 2.79906 44.3212 2.92165 42.0787C3.11062 38.6183 3.3461 35.1587 3.55633 31.7002C3.77152 28.1661 3.96989 24.6305 4.19101 21.0958C4.29094 19.4861 5.11806 18.6049 6.61947 18.4651C6.99197 18.431 7.37337 18.4352 7.74934 18.4352C16.4084 18.4343 25.0649 18.4343 33.7246 18.4343C36.8025 18.4343 37.5188 19.0708 37.6662 21.9357C37.8033 24.5945 37.9299 27.2533 38.0823 29.9108C38.3197 34.0221 38.6106 38.1316 38.8114 42.2448C38.9109 44.3122 37.9591 45.1876 35.7464 45.2802C35.5312 45.289 35.316 45.2825 35.0998 45.2825C30.3498 45.2835 25.6043 45.2812 20.8578 45.2812L20.8573 45.2805Z" fill="#505CFC"/>
<path d="M29.1091 21.4394C27.7046 21.4537 26.6163 22.4835 26.6154 23.7976C26.6154 25.0819 27.7453 26.1449 29.1294 26.1592C30.5136 26.1744 31.6791 25.0565 31.6544 23.7396C31.6247 22.4185 30.528 21.4261 29.1092 21.4394H29.1091Z" fill="#505CFC"/>
<path d="M12.5695 21.4394C11.165 21.4537 10.0767 22.4835 10.0758 23.7976C10.0758 25.0819 11.2072 26.1449 12.5899 26.1592C13.9751 26.1744 15.1405 25.0565 15.1148 23.7396C15.0886 22.4185 13.9904 21.4261 12.5696 21.4394H12.5695Z" fill="#505CFC"/>
<path d="M27.6856 22.7976C27.6926 19.6728 27.741 12.1734 27.6693 9.0499C27.602 6.1256 25.6301 3.78625 22.7545 2.99655C19.9793 2.23643 16.8811 3.19385 15.262 5.3018C14.5175 6.27212 14.144 7.36041 14.1177 8.53999C14.0455 11.834 14.0856 19.503 14.0327 22.7975H11.1061C11.1071 19.6408 11.1071 12.1106 11.1462 8.95537C11.1709 7.09725 11.6473 5.33083 12.833 3.77327C15.211 0.647528 19.6756 -0.751077 23.6811 0.39948C27.7484 1.56801 30.5414 4.99899 30.5918 9.03231C30.6309 12.1622 30.6166 19.6671 30.6072 22.7989L27.6856 22.7976Z" fill="#505CFC"/>
<circle cx="39.7273" cy="20.7273" r="8.72727" fill="#FF0000"/>
</svg>
