<svg width="51" height="50" viewBox="0 0 51 50" fill="none" xmlns="http://www.w3.org/2000/svg">
<g clip-path="url(#clip0_6_39)">
<path d="M9.19051 0C4.62115 0 0.857178 3.76397 0.857178 8.33333V41.6667C0.857178 46.236 4.62115 50 9.19051 50H42.5238C47.0932 50 50.8572 46.236 50.8572 41.6667V8.33333C50.8572 3.76397 47.0932 0 42.5238 0H9.19051ZM9.19051 5.55556H42.5238C44.0934 5.55556 45.3016 6.76381 45.3016 8.33333V41.6667C45.3016 43.2362 44.0934 44.4444 42.5238 44.4444H9.19051C7.62098 44.4444 6.41273 43.2362 6.41273 41.6667V8.33333C6.41273 6.76381 7.62098 5.55556 9.19051 5.55556ZM25.8572 11.1111V30.5556C25.8572 32.1251 24.6489 33.3333 23.0794 33.3333C21.5099 33.3333 20.3016 32.1251 20.3016 30.5556C20.3016 28.986 21.5099 27.7778 23.0794 27.7778V22.2222C18.51 22.2222 14.7461 25.9862 14.7461 30.5556C14.7461 35.1249 18.51 38.8889 23.0794 38.8889C27.6488 38.8889 31.4127 35.1249 31.4127 30.5556V20.0901C33.1243 21.3093 34.9103 22.2222 36.9683 22.2222V16.6667C36.8368 16.6667 34.9201 16.0582 33.5829 14.8926C32.2456 13.727 31.4127 12.2639 31.4127 11.1111H25.8572Z" fill="black"/>
</g>
<defs>
<clipPath id="clip0_6_39">
<rect width="51" height="50" fill="white"/>
</clipPath>
</defs>
</svg>
