<svg width="34" height="37" viewBox="0 0 34 37" fill="none" xmlns="http://www.w3.org/2000/svg">
<path d="M31.87 8.61C30.88 8.57 29.91 8.41 29.01 8C26.14 6.67 24.59 4.44 24.42 1.29C24.4 0.909999 24.42 0.529999 24.42 0.139999H16.7V0.599999C16.7 8.5 16.7 16.4 16.7 24.31C16.7 24.59 16.7 24.87 16.64 25.15C16.39 26.71 15.5 27.79 14.01 28.31C12.47 28.84 11.05 28.52 9.89 27.39C8.75 26.29 8.42 24.92 8.88 23.42C9.54 21.31 11.76 20.18 13.92 20.83C14.39 20.97 14.86 21.13 15.33 21.28V13.32C13.7 12.97 11.74 12.96 10.16 13.3C4.30001 14.55 0.339999 19.93 0.949999 25.83C1.43 30.47 4.91001 34.51 9.48001 35.71C10.22 35.9 10.98 36 11.73 36.14H13.58C13.93 36.09 14.28 36.04 14.63 35.98C20.38 35.01 24.45 30.23 24.45 24.44C24.45 21.19 24.45 17.95 24.44 14.7V14.24C27.26 15.83 30.23 16.41 33.38 16.21V8.7C32.87 8.67 32.38 8.64 31.89 8.62L31.87 8.61ZM31.23 14.08C27.74 13.93 24.91 12.35 22.36 10.13C22.34 10.15 22.31 10.18 22.29 10.2V10.61C22.29 15.23 22.31 19.85 22.31 24.47C22.31 28.98 19.32 32.73 14.89 33.78C9.34 35.1 3.81 31.35 3.08 25.76C2.44 20.85 5.95 16.15 10.9 15.32C11.32 15.25 11.74 15.21 12.17 15.18C12.5 15.16 12.83 15.18 13.2 15.18V18.49C12.55 18.56 11.91 18.58 11.29 18.71C8.5 19.31 6.52 21.82 6.54 24.68C6.57 27.5 8.61 29.96 11.4 30.53C15.15 31.29 18.62 28.62 18.8 24.83C18.8 24.64 18.8 24.46 18.8 24.27C18.8 17.1 18.8 9.92 18.8 2.75V2.27H22.27C23.24 7.16 26.2 9.99 31.21 10.76V14.1L31.23 14.08Z" fill="#505CFC" stroke="#505CFC" stroke-width="0.25" stroke-miterlimit="10"/>
</svg>
