<svg width="37" height="30" viewBox="0 0 37 30" fill="none" xmlns="http://www.w3.org/2000/svg">
<path d="M34.99 1.99C34.73 1.98 34.43 2.08 34.19 2.2C33.35 2.65 32.47 2.97 31.5 2.91C31.09 2.89 30.67 2.89 30.31 2.57C28.13 0.649999 25.6 -0.0300007 22.8 0.749999C19.68 1.62 17.62 3.62 16.89 6.84C16.76 7.44 16.74 8.07 16.67 8.71C16.58 8.71 16.48 8.71 16.38 8.69C13.1 8.2 10.15 6.96 7.52 4.94C6.45 4.12 5.5 3.18 4.63 2.15C4.08 1.5 3.16999 1.54 2.75999 2.25C1.82999 3.85 1.42999 5.57 1.72999 7.4C1.87999 8.28 2.19 9.14 2.45 10.05C1.81 10.25 1.56001 10.76 1.60001 11.49C1.66001 12.61 1.92 13.67 2.41 14.68C2.89 15.65 3.55001 16.49 4.35001 17.2C3.96001 17.8 3.94 18 4.19 18.67C4.64 19.87 5.30999 20.93 6.28999 21.76C6.98999 22.35 7.78999 22.84 8.53999 23.38C8.15999 23.53 7.71 23.73 7.25 23.88C5.39 24.51 3.46999 24.72 1.50999 24.51C0.909994 24.45 0.480002 24.74 0.300002 25.26C0.120002 25.78 0.299997 26.27 0.809997 26.6C1.05 26.75 1.29 26.9 1.53 27.04C5.24 29.14 9.23 30.04 13.49 29.77C16.23 29.59 18.86 28.95 21.32 27.74C28.49 24.22 32.88 17.17 32.93 9.16C32.93 9 33.04 8.82 33.14 8.68C33.73 7.92 34.4 7.22 34.93 6.42C35.59 5.43 35.98 4.32 35.99 3.11C35.99 2.49 35.58 2 34.97 1.97L34.99 1.99ZM31.29 7.29C30.8 7.65 30.63 8.08 30.65 8.68C30.77 13.45 29.27 17.66 26.16 21.26C23.02 24.89 19 26.89 14.24 27.44C11.54 27.75 8.89 27.5 6.3 26.68C6.24 26.66 6.17 26.63 6.11 26.61C7.77 26.19 9.33999 25.61 10.79 24.74C11.29 24.44 11.78 24.1 12.25 23.76C12.71 23.43 12.87 22.98 12.73 22.5C12.59 22.01 12.24 21.72 11.66 21.69C10.16 21.61 8.84 21.1 7.74 20.06C7.51 19.84 7.3 19.59 7.05 19.32C7.6 19.22 8.09 19.15 8.56 19.03C9.24 18.85 9.58 18.19 9.34 17.54C9.17 17.08 8.80001 16.89 8.35001 16.79C7.00001 16.48 5.89001 15.79 5.07001 14.68C4.68001 14.16 4.39999 13.56 4.03999 12.93C4.71999 13 5.27001 13.08 5.82001 13.1C6.57001 13.12 7.08 12.52 6.97 11.78C6.91 11.38 6.64 11.15 6.34 10.93C5.15 10.09 4.36999 8.96 4.03999 7.54C3.84999 6.69 3.86 5.84 4.08 4.95C4.17 5.03 4.24 5.08 4.3 5.13C7.81 8.53 12 10.49 16.85 11.04C17.24 11.08 17.62 11.12 18.01 11.12C18.76 11.13 19.31 10.48 19.14 9.76C18.15 5.65 21.68 2.54 25.29 2.74C26.63 2.81 27.82 3.31 28.77 4.26C29.36 4.85 30.04 5.09 30.82 5.12C31.58 5.16 32.34 5.12 33.11 5.12C32.66 5.93 32.07 6.71 31.28 7.29H31.29Z" fill="#505CFC" stroke="#505CFC" stroke-width="0.25" stroke-miterlimit="10"/>
</svg>
