<svg width="60" height="48" viewBox="0 0 60 48" fill="none" xmlns="http://www.w3.org/2000/svg">
<g clip-path="url(#clip0_6_41)">
<path d="M59.5238 0.19043C57.2024 1.56832 52.5446 3.44618 49.8065 3.98781C49.7262 4.00864 49.6607 4.03543 49.5833 4.05626C47.1637 1.6695 43.8482 0.19043 40.1786 0.19043C32.7827 0.19043 26.7857 6.18708 26.7857 13.5824C26.7857 13.9723 26.753 14.6895 26.7857 15.0705C16.8065 15.0705 9.21131 9.84459 3.76488 3.16643C3.17262 4.65444 2.91369 7.00548 2.91369 9.21368C2.91369 13.3831 6.17262 17.478 11.247 20.0166C10.3125 20.2576 9.28274 20.4302 8.21131 20.4302C6.48214 20.4302 4.65179 19.9749 2.97619 18.594C2.97619 18.6446 2.97619 18.6923 2.97619 18.7458C2.97619 24.5728 9.16072 28.5398 14.6607 29.6439C13.5446 30.3016 11.2946 30.3671 10.1964 30.3671C9.42262 30.3671 6.68452 30.013 5.95238 29.8761C7.48214 34.6526 13 37.3369 18.2589 37.4322C14.1458 40.6581 11.2917 41.8545 2.86905 41.8545H0C5.32143 45.265 12.0982 47.8095 18.8899 47.8095C41.003 47.8095 53.5714 30.9564 53.5714 15.0705C53.5714 14.8145 53.5655 14.2788 53.5566 13.7402C53.5566 13.6866 53.5714 13.636 53.5714 13.5824C53.5714 13.5021 53.5476 13.4247 53.5476 13.3444C53.5387 12.9396 53.5298 12.5617 53.5208 12.3653C55.872 10.6689 57.9107 8.553 59.5238 6.14244C57.3661 7.10071 55.0506 7.74353 52.619 8.03518C55.1012 6.54718 58.628 2.99978 59.5238 0.19043ZM47.619 15.0705C47.619 27.2125 38.8185 40.0659 22.4226 41.6849C24.6429 40.1106 26.7857 37.8756 26.7857 37.8756C26.7857 37.8756 17.8571 29.9535 17.1875 19.6029C20.2679 20.5433 23.4762 21.0225 26.7857 21.0225H32.7381V13.5824C32.7381 13.5795 32.7381 13.5795 32.7381 13.5795C32.744 9.47259 36.0714 6.14541 40.1786 6.14541C44.2887 6.14541 47.619 9.47556 47.619 13.5854C47.619 13.5854 47.619 14.8353 47.619 15.0705Z" fill="black"/>
</g>
<defs>
<clipPath id="clip0_6_41">
<rect width="60" height="48" fill="white"/>
</clipPath>
</defs>
</svg>
